<?xml version="1.0" encoding="UTF-8" standalone="no"?>
<!-- Created with Inkscape (http://www.inkscape.org/) -->

<svg
   width="173.39732mm"
   height="173.39732mm"
   viewBox="0 0 173.39732 173.39732"
   version="1.1"
   id="svg1"
   xml:space="preserve"
   inkscape:export-filename="maçavetorizado.svg"
   inkscape:export-xdpi="300"
   inkscape:export-ydpi="300"
   inkscape:version="1.4.3 (0d15f75042, 2025-12-25)"
   sodipodi:docname="maçavetorizado.svg"
   xmlns:inkscape="http://www.inkscape.org/namespaces/inkscape"
   xmlns:sodipodi="http://sodipodi.sourceforge.net/DTD/sodipodi-0.dtd"
   xmlns="http://www.w3.org/2000/svg"
   xmlns:svg="http://www.w3.org/2000/svg"><sodipodi:namedview
     id="namedview1"
     pagecolor="#ffffff"
     bordercolor="#000000"
     borderopacity="0.25"
     inkscape:showpageshadow="2"
     inkscape:pageopacity="0.0"
     inkscape:pagecheckerboard="0"
     inkscape:deskcolor="#d1d1d1"
     inkscape:document-units="mm"
     inkscape:zoom="0.35355339"
     inkscape:cx="15.556349"
     inkscape:cy="558.61435"
     inkscape:window-width="1280"
     inkscape:window-height="646"
     inkscape:window-x="0"
     inkscape:window-y="0"
     inkscape:window-maximized="1"
     inkscape:current-layer="layer1" /><defs
     id="defs1" /><g
     inkscape:label="Maça Vetorizado"
     inkscape:groupmode="layer"
     id="layer1"
     transform="translate(-24.161755,-15.959672)"
     style="display:inline"><path
       style="display:inline;fill:#356732;fill-opacity:1;stroke-width:0.264583"
       d="M 117.96716,37.065489 135.45711,24.834735 176.99973,28.769177 144.52066,47.6476 133.689,47.201592 114.192,55.357196 114.36191,44.907827 Z"
       id="path2"
       inkscape:label="Folha Escuro" /><path
       style="fill:#59a251;fill-opacity:1;stroke-width:0.264583"
       d="m 116.70877,43.67599 21.69437,-11.301722 29.62064,-1.839635 -23.95138,7.644064 -6.93213,-0.109686 -21.99253,11.617492 -0.40354,-3.610557 z"
       id="path3"
       inkscape:label="Folha Brilho" /><path
       style="display:inline;fill:#4f0405;fill-opacity:1;stroke-width:0.264583"
       d="m 108.07068,21.959334 12.49953,2.580716 -6.87156,35.226919 -4.92589,-1.757097 v -0.28534 z"
       id="path1"
       inkscape:label="Pino" /><path
       style="fill:#4f0405;fill-opacity:1;stroke-width:0.264583"
       d="m 65.897709,161.94146 9.514663,13.26844 16.849658,-2.30622 17.70741,10.40495 19.52955,-10.51719 14.22996,4.3802 30.93979,-38.4818 7.20948,-42.606896 -8.29199,-17.57722 -51.76419,55.693986 z"
       id="path7"
       inkscape:label="Maça Escura" /><path
       style="fill:#831314;fill-opacity:1;stroke-width:0.264583"
       d="M 46.012617,134.19845 65.897709,161.94352 133.50081,149.37585 173.5886,78.507244 162.78275,55.552116 143.53431,48.296746 143.20277,48.536517 106.97634,84.751338 63.055505,112.268 Z"
       id="path6"
       inkscape:label="Maça Media"
       sodipodi:nodetypes="cccccccccc" /><path
       style="display:inline;fill:#cd2928;fill-opacity:1;stroke-width:0.264583"
       d="m 82.712903,46.941658 31.274837,12.708921 29.54799,-11.355202 -34.0842,58.235663 -63.437953,27.669 -6.451212,-42.4373 20.011665,-35.483685 z"
       id="path4"
       inkscape:label="Maça Clara"
       sodipodi:nodetypes="cccccccc" /><path
       style="fill:#ff625b;fill-opacity:1;stroke-width:0.264583"
       d="M 53.157619,91.458554 67.294611,64.303941 77.701504,80.763824 c 0,0 -24.528031,10.648058 -24.543885,10.69473 z"
       id="path5"
       inkscape:label="Brilho" /></g></svg>
